<mxfile host="app.diagrams.net" modified="2021-03-11T08:55:39.450Z" agent="5.0 (Windows)" etag="KhHSoTCuVbwi3-WHp2jO" version="14.4.3" type="github">
  <diagram id="kgpKYQtTHZ0yAKxKKP6v" name="Page-1">
    <mxGraphModel dx="1673" dy="882" grid="0" gridSize="10" guides="1" tooltips="1" connect="1" arrows="1" fold="1" page="1" pageScale="1" pageWidth="850" pageHeight="1100" math="0" shadow="0">
      <root>
        <mxCell id="0" />
        <mxCell id="1" parent="0" />
        <mxCell id="6u9HRy79YRFUqpu26OF2-1" value="" style="shape=flexArrow;endArrow=classic;html=1;fillColor=#1ba1e2;strokeColor=#006EAF;" parent="1" edge="1">
          <mxGeometry width="50" height="50" relative="1" as="geometry">
            <mxPoint x="180" y="570" as="sourcePoint" />
            <mxPoint x="1440" y="570" as="targetPoint" />
          </mxGeometry>
        </mxCell>
        <mxCell id="6u9HRy79YRFUqpu26OF2-2" value="" style="endArrow=none;dashed=1;html=1;dashPattern=1 3;strokeWidth=2;" parent="1" edge="1">
          <mxGeometry width="50" height="50" relative="1" as="geometry">
            <mxPoint x="240" y="1250" as="sourcePoint" />
            <mxPoint x="240" y="560" as="targetPoint" />
          </mxGeometry>
        </mxCell>
        <mxCell id="6u9HRy79YRFUqpu26OF2-3" value="" style="endArrow=none;dashed=1;html=1;dashPattern=1 3;strokeWidth=2;" parent="1" edge="1">
          <mxGeometry width="50" height="50" relative="1" as="geometry">
            <mxPoint x="400" y="1250" as="sourcePoint" />
            <mxPoint x="400" y="560" as="targetPoint" />
          </mxGeometry>
        </mxCell>
        <mxCell id="6u9HRy79YRFUqpu26OF2-4" value="" style="endArrow=none;dashed=1;html=1;dashPattern=1 3;strokeWidth=2;" parent="1" edge="1">
          <mxGeometry width="50" height="50" relative="1" as="geometry">
            <mxPoint x="560" y="1250" as="sourcePoint" />
            <mxPoint x="560" y="560" as="targetPoint" />
          </mxGeometry>
        </mxCell>
        <mxCell id="6u9HRy79YRFUqpu26OF2-5" value="" style="endArrow=none;dashed=1;html=1;dashPattern=1 3;strokeWidth=2;" parent="1" edge="1">
          <mxGeometry width="50" height="50" relative="1" as="geometry">
            <mxPoint x="720" y="1250" as="sourcePoint" />
            <mxPoint x="720" y="560" as="targetPoint" />
          </mxGeometry>
        </mxCell>
        <mxCell id="6u9HRy79YRFUqpu26OF2-6" value="" style="endArrow=none;dashed=1;html=1;dashPattern=1 3;strokeWidth=2;" parent="1" edge="1">
          <mxGeometry width="50" height="50" relative="1" as="geometry">
            <mxPoint x="880" y="1250" as="sourcePoint" />
            <mxPoint x="880" y="560" as="targetPoint" />
          </mxGeometry>
        </mxCell>
        <mxCell id="6u9HRy79YRFUqpu26OF2-7" value="" style="endArrow=none;dashed=1;html=1;dashPattern=1 3;strokeWidth=2;" parent="1" edge="1">
          <mxGeometry width="50" height="50" relative="1" as="geometry">
            <mxPoint x="1040" y="1250" as="sourcePoint" />
            <mxPoint x="1040" y="560" as="targetPoint" />
          </mxGeometry>
        </mxCell>
        <mxCell id="3nuBFxr9cyL0pnOWT2aG-7" value="Story Validation" style="rounded=0;whiteSpace=wrap;html=1;fontSize=14;fontFamily=Verdana;" parent="1" vertex="1">
          <mxGeometry x="264" y="788.75" width="110" height="65" as="geometry" />
        </mxCell>
        <mxCell id="6u9HRy79YRFUqpu26OF2-8" value="Ownership" style="text;html=1;strokeColor=none;fillColor=none;align=center;verticalAlign=middle;whiteSpace=wrap;rounded=0;fontStyle=1;fontSize=17;" parent="1" vertex="1">
          <mxGeometry x="10" y="590" width="170" height="40" as="geometry" />
        </mxCell>
        <mxCell id="6u9HRy79YRFUqpu26OF2-9" value="" style="triangle;whiteSpace=wrap;html=1;fontSize=17;fillColor=#0050ef;strokeColor=#001DBC;fontColor=#ffffff;" parent="1" vertex="1">
          <mxGeometry x="40" y="806.25" width="30" height="30" as="geometry" />
        </mxCell>
        <mxCell id="6u9HRy79YRFUqpu26OF2-10" value="" style="triangle;whiteSpace=wrap;html=1;fontSize=17;fillColor=#008a00;strokeColor=#005700;fontColor=#ffffff;" parent="1" vertex="1">
          <mxGeometry x="40" y="920" width="30" height="30" as="geometry" />
        </mxCell>
        <mxCell id="6u9HRy79YRFUqpu26OF2-11" value="" style="triangle;whiteSpace=wrap;html=1;fontSize=17;fillColor=#647687;strokeColor=#314354;fontColor=#ffffff;" parent="1" vertex="1">
          <mxGeometry x="40" y="680" width="30" height="30" as="geometry" />
        </mxCell>
        <mxCell id="6u9HRy79YRFUqpu26OF2-16" value="IT TA" style="text;html=1;strokeColor=none;fillColor=none;align=center;verticalAlign=middle;whiteSpace=wrap;rounded=0;fontSize=17;" parent="1" vertex="1">
          <mxGeometry x="90" y="920" width="110" height="25" as="geometry" />
        </mxCell>
        <mxCell id="6u9HRy79YRFUqpu26OF2-17" value="Development" style="text;html=1;strokeColor=none;fillColor=none;align=center;verticalAlign=middle;whiteSpace=wrap;rounded=0;fontSize=17;" parent="1" vertex="1">
          <mxGeometry x="100" y="682.5" width="110" height="25" as="geometry" />
        </mxCell>
        <mxCell id="6u9HRy79YRFUqpu26OF2-18" value="BU MT" style="text;html=1;strokeColor=none;fillColor=none;align=center;verticalAlign=middle;whiteSpace=wrap;rounded=0;fontSize=17;" parent="1" vertex="1">
          <mxGeometry x="90" y="806.25" width="110" height="25" as="geometry" />
        </mxCell>
        <mxCell id="6u9HRy79YRFUqpu26OF2-19" value="Story Unit &amp;amp; Smoke Test" style="rounded=0;whiteSpace=wrap;html=1;fontFamily=Verdana;fontSize=14;" parent="1" vertex="1">
          <mxGeometry x="425" y="670" width="110" height="65" as="geometry" />
        </mxCell>
        <mxCell id="6u9HRy79YRFUqpu26OF2-22" value="Story Verification" style="rounded=0;whiteSpace=wrap;html=1;fontSize=14;fontFamily=Verdana;" parent="1" vertex="1">
          <mxGeometry x="581" y="783.75" width="110" height="65" as="geometry" />
        </mxCell>
        <mxCell id="6u9HRy79YRFUqpu26OF2-23" value="Continuous Integration Technical " style="rounded=0;whiteSpace=wrap;html=1;fontSize=14;fontFamily=Verdana;" parent="1" vertex="1">
          <mxGeometry x="425" y="908.75" width="110" height="65" as="geometry" />
        </mxCell>
        <mxCell id="6u9HRy79YRFUqpu26OF2-25" value="Continuous Integration Business " style="rounded=0;whiteSpace=wrap;html=1;fontSize=14;fontFamily=Verdana;" parent="1" vertex="1">
          <mxGeometry x="581" y="908.75" width="110" height="65" as="geometry" />
        </mxCell>
        <mxCell id="6u9HRy79YRFUqpu26OF2-26" value="Release Regression Technical Library)" style="rounded=0;whiteSpace=wrap;html=1;fontSize=14;fontFamily=Verdana;" parent="1" vertex="1">
          <mxGeometry x="740" y="908.75" width="110" height="65" as="geometry" />
        </mxCell>
        <mxCell id="6u9HRy79YRFUqpu26OF2-27" value="Release Regression (Manual Test Library)" style="rounded=0;whiteSpace=wrap;html=1;fontSize=14;fontFamily=Verdana;" parent="1" vertex="1">
          <mxGeometry x="740" y="783.75" width="110" height="65" as="geometry" />
        </mxCell>
        <mxCell id="6u9HRy79YRFUqpu26OF2-28" value="" style="triangle;whiteSpace=wrap;html=1;fontSize=17;fillColor=#1ba1e2;strokeColor=#006EAF;fontColor=#ffffff;" parent="1" vertex="1">
          <mxGeometry x="40" y="1040" width="30" height="30" as="geometry" />
        </mxCell>
        <mxCell id="6u9HRy79YRFUqpu26OF2-29" value="BU TA" style="text;html=1;strokeColor=none;fillColor=none;align=center;verticalAlign=middle;whiteSpace=wrap;rounded=0;fontSize=17;" parent="1" vertex="1">
          <mxGeometry x="90" y="1042.5" width="110" height="25" as="geometry" />
        </mxCell>
        <mxCell id="6u9HRy79YRFUqpu26OF2-30" value="Release Regression (Business Library)" style="rounded=0;whiteSpace=wrap;html=1;fontSize=14;fontFamily=Verdana;" parent="1" vertex="1">
          <mxGeometry x="740" y="1025" width="110" height="65" as="geometry" />
        </mxCell>
        <mxCell id="6u9HRy79YRFUqpu26OF2-32" value="QG1" style="text;html=1;strokeColor=none;fillColor=none;align=center;verticalAlign=middle;whiteSpace=wrap;rounded=0;fontSize=17;fontStyle=1" parent="1" vertex="1">
          <mxGeometry x="282.5" y="590" width="65" height="40" as="geometry" />
        </mxCell>
        <mxCell id="6u9HRy79YRFUqpu26OF2-33" value="QG2" style="text;html=1;strokeColor=none;fillColor=none;align=center;verticalAlign=middle;whiteSpace=wrap;rounded=0;fontSize=17;fontStyle=1" parent="1" vertex="1">
          <mxGeometry x="440" y="590" width="65" height="40" as="geometry" />
        </mxCell>
        <mxCell id="6u9HRy79YRFUqpu26OF2-34" value="QG3" style="text;html=1;strokeColor=none;fillColor=none;align=center;verticalAlign=middle;whiteSpace=wrap;rounded=0;fontSize=17;fontStyle=1" parent="1" vertex="1">
          <mxGeometry x="600" y="590" width="65" height="40" as="geometry" />
        </mxCell>
        <mxCell id="6u9HRy79YRFUqpu26OF2-35" value="QG4" style="text;html=1;strokeColor=none;fillColor=none;align=center;verticalAlign=middle;whiteSpace=wrap;rounded=0;fontSize=17;fontStyle=1" parent="1" vertex="1">
          <mxGeometry x="762.5" y="590" width="65" height="40" as="geometry" />
        </mxCell>
        <mxCell id="6u9HRy79YRFUqpu26OF2-36" value="" style="endArrow=none;dashed=1;html=1;dashPattern=1 3;strokeWidth=1;fontSize=17;" parent="1" edge="1">
          <mxGeometry width="50" height="50" relative="1" as="geometry">
            <mxPoint y="760" as="sourcePoint" />
            <mxPoint x="1400" y="760" as="targetPoint" />
          </mxGeometry>
        </mxCell>
        <mxCell id="6u9HRy79YRFUqpu26OF2-37" value="" style="endArrow=none;dashed=1;html=1;dashPattern=1 3;strokeWidth=1;fontSize=17;" parent="1" edge="1">
          <mxGeometry width="50" height="50" relative="1" as="geometry">
            <mxPoint y="880" as="sourcePoint" />
            <mxPoint x="1400" y="880" as="targetPoint" />
          </mxGeometry>
        </mxCell>
        <mxCell id="6u9HRy79YRFUqpu26OF2-38" value="" style="endArrow=none;dashed=1;html=1;dashPattern=1 3;strokeWidth=1;fontSize=17;" parent="1" edge="1">
          <mxGeometry width="50" height="50" relative="1" as="geometry">
            <mxPoint y="1000" as="sourcePoint" />
            <mxPoint x="1400" y="1000" as="targetPoint" />
          </mxGeometry>
        </mxCell>
        <mxCell id="6u9HRy79YRFUqpu26OF2-39" value="" style="endArrow=none;dashed=1;html=1;dashPattern=1 3;strokeWidth=1;fontSize=17;" parent="1" edge="1">
          <mxGeometry width="50" height="50" relative="1" as="geometry">
            <mxPoint y="1110" as="sourcePoint" />
            <mxPoint x="1400" y="1110" as="targetPoint" />
          </mxGeometry>
        </mxCell>
        <mxCell id="6u9HRy79YRFUqpu26OF2-45" value="&lt;h1&gt;Testing Activities in Development Life cycle&lt;/h1&gt;" style="text;html=1;strokeColor=none;fillColor=none;spacing=5;spacingTop=-20;whiteSpace=wrap;overflow=hidden;rounded=0;fontSize=17;" parent="1" vertex="1">
          <mxGeometry x="347.5" y="410" width="930" height="70" as="geometry" />
        </mxCell>
        <mxCell id="6u9HRy79YRFUqpu26OF2-46" value="QG5" style="text;html=1;strokeColor=none;fillColor=none;align=center;verticalAlign=middle;whiteSpace=wrap;rounded=0;fontSize=17;fontStyle=1" parent="1" vertex="1">
          <mxGeometry x="920" y="590" width="65" height="40" as="geometry" />
        </mxCell>
        <mxCell id="6u9HRy79YRFUqpu26OF2-48" value="CAT" style="rounded=0;whiteSpace=wrap;html=1;fontFamily=Verdana;fontSize=14;" parent="1" vertex="1">
          <mxGeometry x="900" y="783.75" width="110" height="65" as="geometry" />
        </mxCell>
        <mxCell id="6u9HRy79YRFUqpu26OF2-49" value="QG6" style="text;html=1;strokeColor=none;fillColor=none;align=center;verticalAlign=middle;whiteSpace=wrap;rounded=0;fontSize=17;fontStyle=1" parent="1" vertex="1">
          <mxGeometry x="1080" y="590" width="65" height="40" as="geometry" />
        </mxCell>
        <mxCell id="6u9HRy79YRFUqpu26OF2-50" value="IT Ops Verification" style="rounded=0;whiteSpace=wrap;html=1;fontFamily=Verdana;fontSize=14;" parent="1" vertex="1">
          <mxGeometry x="1065" y="1150" width="110" height="65" as="geometry" />
        </mxCell>
        <mxCell id="6u9HRy79YRFUqpu26OF2-51" value="Story creation &amp;amp; Refinement" style="text;html=1;strokeColor=none;fillColor=none;align=center;verticalAlign=middle;whiteSpace=wrap;rounded=0;fontSize=16;" parent="1" vertex="1">
          <mxGeometry x="245" y="520" width="140" height="20" as="geometry" />
        </mxCell>
        <mxCell id="6u9HRy79YRFUqpu26OF2-53" value="" style="endArrow=none;dashed=1;html=1;dashPattern=1 3;strokeWidth=1;fontSize=16;" parent="1" edge="1">
          <mxGeometry width="50" height="50" relative="1" as="geometry">
            <mxPoint y="640" as="sourcePoint" />
            <mxPoint x="1400" y="640" as="targetPoint" />
          </mxGeometry>
        </mxCell>
        <mxCell id="6u9HRy79YRFUqpu26OF2-55" value="Story Implementation" style="text;html=1;strokeColor=none;fillColor=none;align=center;verticalAlign=middle;whiteSpace=wrap;rounded=0;fontSize=16;" parent="1" vertex="1">
          <mxGeometry x="402.5" y="520" width="140" height="20" as="geometry" />
        </mxCell>
        <mxCell id="6u9HRy79YRFUqpu26OF2-56" value="&lt;div&gt;Story Verification &lt;br&gt;&lt;/div&gt;" style="text;html=1;strokeColor=none;fillColor=none;align=center;verticalAlign=middle;whiteSpace=wrap;rounded=0;fontSize=16;" parent="1" vertex="1">
          <mxGeometry x="551" y="515" width="170" height="20" as="geometry" />
        </mxCell>
        <mxCell id="6u9HRy79YRFUqpu26OF2-57" value="Release Regression Test" style="text;html=1;strokeColor=none;fillColor=none;align=center;verticalAlign=middle;whiteSpace=wrap;rounded=0;fontSize=16;" parent="1" vertex="1">
          <mxGeometry x="720" y="520" width="140" height="20" as="geometry" />
        </mxCell>
        <mxCell id="6u9HRy79YRFUqpu26OF2-60" value="Corporate Acceptance Test" style="text;html=1;strokeColor=none;fillColor=none;align=center;verticalAlign=middle;whiteSpace=wrap;rounded=0;fontSize=16;" parent="1" vertex="1">
          <mxGeometry x="882.5" y="520" width="140" height="20" as="geometry" />
        </mxCell>
        <mxCell id="6u9HRy79YRFUqpu26OF2-61" value="IT Ops Verification" style="text;html=1;strokeColor=none;fillColor=none;align=center;verticalAlign=middle;whiteSpace=wrap;rounded=0;fontSize=16;" parent="1" vertex="1">
          <mxGeometry x="1050" y="520" width="140" height="20" as="geometry" />
        </mxCell>
        <mxCell id="6u9HRy79YRFUqpu26OF2-63" value="" style="endArrow=none;dashed=1;html=1;dashPattern=1 3;strokeWidth=2;" parent="1" edge="1">
          <mxGeometry width="50" height="50" relative="1" as="geometry">
            <mxPoint x="1200" y="1250" as="sourcePoint" />
            <mxPoint x="1200" y="560" as="targetPoint" />
          </mxGeometry>
        </mxCell>
        <mxCell id="6u9HRy79YRFUqpu26OF2-64" value="QG7" style="text;html=1;strokeColor=none;fillColor=none;align=center;verticalAlign=middle;whiteSpace=wrap;rounded=0;fontSize=17;fontStyle=1" parent="1" vertex="1">
          <mxGeometry x="1240" y="590" width="65" height="40" as="geometry" />
        </mxCell>
        <mxCell id="6u9HRy79YRFUqpu26OF2-66" value="Deployment Test" style="rounded=0;whiteSpace=wrap;html=1;fontSize=14;fontFamily=Verdana;" parent="1" vertex="1">
          <mxGeometry x="1225" y="1022.5" width="110" height="65" as="geometry" />
        </mxCell>
        <mxCell id="9E5WQLFTQgzxsCY5b8JN-1" value="" style="triangle;whiteSpace=wrap;html=1;fontSize=17;fillColor=#6a00ff;strokeColor=#3700CC;fontColor=#ffffff;" parent="1" vertex="1">
          <mxGeometry x="40" y="1160" width="30" height="30" as="geometry" />
        </mxCell>
        <mxCell id="9E5WQLFTQgzxsCY5b8JN-2" value="IT Ops" style="text;html=1;strokeColor=none;fillColor=none;align=center;verticalAlign=middle;whiteSpace=wrap;rounded=0;fontSize=17;" parent="1" vertex="1">
          <mxGeometry x="90" y="1160" width="110" height="25" as="geometry" />
        </mxCell>
        <mxCell id="t11BfAXbX9nfqwSB5EDf-2" value="&lt;font style=&quot;font-size: 17px;&quot;&gt;Stage&lt;/font&gt;" style="text;html=1;align=center;verticalAlign=middle;resizable=0;points=[];autosize=1;fontStyle=1;fontSize=17;" parent="1" vertex="1">
          <mxGeometry x="125" y="515" width="60" height="30" as="geometry" />
        </mxCell>
        <mxCell id="059CB4QYyOik2lWfVAIi-1" value="Deployment Test" style="text;html=1;strokeColor=none;fillColor=none;align=center;verticalAlign=middle;whiteSpace=wrap;rounded=0;fontSize=16;" vertex="1" parent="1">
          <mxGeometry x="1240" y="520" width="140" height="20" as="geometry" />
        </mxCell>
      </root>
    </mxGraphModel>
  </diagram>
</mxfile>
